<svg xmlns="http://www.w3.org/2000/svg" width="512" height="512" fill-rule="evenodd" clip-rule="evenodd" image-rendering="optimizeQuality" shape-rendering="geometricPrecision" text-rendering="geometricPrecision" viewBox="0 0 512 512"><path fill-rule="nonzero" d="M216.81 2.42c-1.19,-2.56 -4.81,-2.56 -6,0 -8.33,17.86 -54.97,96.09 -54.97,125.17 0,32.02 25.95,57.97 57.97,57.97 32.02,0 57.97,-25.95 57.97,-57.97 0,-25.65 -46.64,-107.31 -54.97,-125.17zm-33.38 325.94c-1.19,-2.56 -4.81,-2.56 -6,0 -8.33,17.86 -54.97,96.09 -54.97,125.17 0,32.02 25.96,57.97 57.97,57.97 32.02,0 57.97,-25.95 57.97,-57.97 0,-25.65 -46.63,-107.31 -54.97,-125.17zm151.14 -164.88c-1.19,-2.56 -4.81,-2.56 -6,0 -8.34,17.86 -54.97,96.09 -54.97,125.17 0,32.02 25.95,57.98 57.97,57.98 32.01,0 57.97,-25.96 57.97,-57.98 0,-25.64 -46.64,-107.31 -54.97,-125.17z"/></svg>