<svg xmlns="http://www.w3.org/2000/svg" viewBox="0 0 80 80"><path d="M63.001 47.822C61.497 39.94 54.491 34 46.313 34c-5.9 0-11.357 3.096-14.431 8.038A11.923 11.923 0 0 0 27 41c-6.617 0-12 5.383-12 12 0 .344.016.69.046 1.034C9.853 55.004 6 59.592 6 64.923 6 71.03 10.969 76 17.077 76h44.805C69.667 76 76 69.667 76 61.883c0-3.91-1.56-7.542-4.396-10.229a14.19 14.19 0 0 0-8.603-3.832zM61.881 72H17.078A7.085 7.085 0 0 1 10 64.923c0-3.522 2.632-6.535 6.12-7.012l3.817-.52-.627-2.215A7.999 7.999 0 0 1 19 53c0-4.411 3.589-8 8-8 1.629 0 3.2.49 4.541 1.419l1.964 1.357.992-2.17C36.61 40.985 41.248 38 46.313 38c6.724 0 12.41 5.251 12.945 11.954l.155 1.942 1.946-.104a10.03 10.03 0 0 1 7.495 2.766A9.997 9.997 0 0 1 72 61.883C72 67.462 67.46 72 61.882 72zM27 38c6.065 0 11-4.935 11-11s-4.935-11-11-11-11 4.935-11 11 4.935 11 11 11zm0-18c3.86 0 7 3.14 7 7s-3.14 7-7 7-7-3.14-7-7 3.14-7 7-7zM25 6h4v6h-4zM10.736 13.565l2.829-2.829 4.243 4.244-2.828 2.828zM6 25h6v4H6zM10.736 40.435l4.244-4.243 2.828 2.828-4.243 4.244zM42 25h6v4h-6zM36.192 14.98l4.244-4.244 2.828 2.828-4.243 4.244z"/></svg>